#!OML:ASF E:\acrobat2\Project_11_07_03\Capture day 1\Session 1\Acrobat.ASF
:FULLY-SPECIFIED
:DEGREES
404
root 9.07555 18.3327 2.73698 4.03475 -6.84707 -0.666567
lowerback -1.85622 -1.57956 -5.52952
upperback 2.54818 -1.84068 -2.05719
thorax 3.78511 -1.03918 0.873848
lowerneck 9.02651 -12.003 -9.04042
upperneck -0.678379 -16.7342 9.04933
head -0.109078 -8.56014 4.3318
rclavicle -3.51849e-014 -2.54444e-014
rhumerus -37.0717 6.35872 -83.6091
rradius 33.3009
rwrist -0.560282
rhand -5.93404 -35.3461
rfingers 7.12502
rthumb 19.8958 -64.3476
lclavicle -3.51849e-014 -2.54444e-014
lhumerus -23.8686 -5.92434 75.9326
lradius 27.9473
lwrist 14.3681
lhand -14.6505 -13.3798
lfingers 7.12502
lthumb 11.5018 16.2846
rfemur -16.928 0.639326 13.6195
rtibia 23.9089
rfoot -16.6723 -14.7625
rtoes 1.27573
lfemur -1.78978 -0.0420381 -16.7561
ltibia 10.2576
lfoot -9.90757 -7.11359
ltoes 34.458
405
root 9.07177 18.3349 2.78505 4.17753 -6.83597 -0.703841
lowerback -1.90024 -1.58298 -5.5121
upperback 2.47222 -1.84589 -2.06351
thorax 3.73037 -1.03885 0.857826
lowerneck 8.64653 -11.7019 -8.82783
upperneck -0.318866 -16.3025 9.00832
head -0.00328184 -8.33727 4.26016
rclavicle 3.55825e-014 -1.59028e-014
rhumerus -37.2178 6.24662 -83.5903
rradius 33.0169
rwrist -0.46785
rhand -5.86377 -35.3593
rfingers 7.12502
rthumb 19.9633 -64.3539
lclavicle 3.55825e-014 -1.59028e-014
lhumerus -23.8092 -6.18004 76.037
lradius 28.1035
lwrist 14.3542
lhand -14.6879 -13.345
lfingers 7.12502
lthumb 11.4657 16.3214
rfemur -17.1703 0.868821 13.7724
rtibia 22.8685
rfoot -16.6305 -14.6919
rtoes 1.72518
lfemur -1.52059 -0.132613 -16.7161
ltibia 9.79848
lfoot -9.95794 -7.06432
ltoes 34.2376
406
root 9.06796 18.3369 2.83412 4.32522 -6.82736 -0.753869
lowerback -1.94672 -1.57991 -5.45305
upperback 2.39427 -1.8438 -2.07366
thorax 3.67286 -1.03369 0.815147
lowerneck 8.21085 -11.3667 -8.65224
upperneck 0.183712 -15.8326 8.63696
head 0.139436 -8.08955 4.54154
rclavicle -2.16675e-014 3.81667e-014
rhumerus -37.3498 6.05848 -83.552
rradius 32.6948
rwrist -0.372522
rhand -5.78601 -35.31
rfingers 7.12502
rthumb 20.0381 -64.2967
lclavicle -2.16675e-014 3.81667e-014
lhumerus -23.7729 -6.47431 76.151
lradius 28.2562
lwrist 14.333
lhand -14.7303 -13.3272
lfingers 7.12502
lthumb 11.4248 16.3415
rfemur -17.4227 1.11281 13.9266
rtibia 21.8955
rfoot -16.5732 -14.4826
rtoes 2.62381
lfemur -1.24474 -0.205774 -16.6543
ltibia 9.3222
lfoot -9.97937 -7.03656
ltoes 34.1615
407
root 9.06373 18.3384 2.88363 4.48257 -6.79718 -0.78862
lowerback -1.99408 -1.57773 -5.38841
upperback 2.31322 -1.84298 -2.09096
thorax 3.61231 -1.02888 0.76195
lowerneck 7.76194 -11.0073 -8.39958
upperneck 0.595426 -15.3204 8.59991
head 0.278776 -7.82533 4.44486
rclavicle -2.78299e-015 1.59028e-015
rhumerus -37.4765 5.80279 -83.493
rradius 32.3567
rwrist -0.27673
rhand -5.70584 -35.1958
rfingers 7.12502
rthumb 20.1151 -64.1744
lclavicle -2.78299e-015 1.59028e-015
lhumerus -23.7607 -6.76984 76.2738
lradius 28.4143
lwrist 14.3109
lhand -14.7416 -13.3239
lfingers 7.12502
lthumb 11.414 16.3454
rfemur -17.6871 1.33253 14.0556
rtibia 20.9548
rfoot -16.4023 -14.2188
rtoes 3.38441
lfemur -0.981936 -0.24428 -16.6004
ltibia 8.83996
lfoot -9.93079 -7.06887
ltoes 34.3191
408
root 9.05896 18.3394 2.93372 4.64032 -6.74322 -0.779334
lowerback -2.04229 -1.57373 -5.35075
upperback 2.23492 -1.83817 -2.12147
thorax 3.55551 -1.02279 0.710234
lowerneck 7.27445 -10.6352 -8.13806
upperneck 1.03415 -14.7923 8.56239
head 0.432673 -7.55139 4.34505
rclavicle 3.57812e-015 2.54444e-014
rhumerus -37.598 5.49916 -83.4156
rradius 32.0158
rwrist -0.182388
rhand -5.61117 -35.064
rfingers 7.12502
rthumb 20.2061 -64.0331
lclavicle 3.57812e-015 2.54444e-014
lhumerus -23.7548 -7.0723 76.4119
lradius 28.5703
lwrist 14.3069
lhand -14.7226 -13.3338
lfingers 7.12502
lthumb 11.4323 16.3345
rfemur -17.9492 1.53696 14.1229
rtibia 20.038
rfoot -16.1448 -13.9182
rtoes 4.01481
lfemur -0.723369 -0.2421 -16.5904
ltibia 8.34877
lfoot -9.80592 -7.16803
ltoes 34.6977
409
root 9.05332 18.3397 2.98423 4.79612 -6.65413 -0.724355
lowerback -2.0862 -1.56955 -5.34838
upperback 2.16029 -1.83161 -2.16447
thorax 3.50093 -1.01669 0.665376
lowerneck 6.771 -10.2541 -7.88073
upperneck 1.47422 -14.2554 8.54729
head 0.592524 -7.2719 4.25529
rclavicle 1.68967e-014 -1.59028e-014
rhumerus -37.7096 5.16465 -83.3255
rradius 31.6596
rwrist -0.0836764
rhand -5.49323 -34.9665
rfingers 7.12502
rthumb 20.3195 -63.9235
lclavicle 1.68967e-014 -1.59028e-014
lhumerus -23.742 -7.42625 76.5703
lradius 28.7043
lwrist 14.3569
lhand -14.7104 -13.3852
lfingers 7.12502
lthumb 11.444 16.2825
rfemur -18.1997 1.73347 14.1268
rtibia 19.1438
rfoot -15.8277 -13.6208
rtoes 4.36734
lfemur -0.468043 -0.19549 -16.6234
ltibia 7.85076
lfoot -9.59428 -7.34923
ltoes 35.2907
410
root 9.04644 18.3391 3.03462 4.95652 -6.51093 -0.64211
lowerback -2.12417 -1.572 -5.37306
upperback 2.08697 -1.83319 -2.21031
thorax 3.44573 -1.01528 0.632302
lowerneck 6.24078 -9.86477 -7.61464
upperneck 1.92484 -13.7097 8.54021
head 0.761015 -6.98628 4.16766
rclavicle 1.15295e-014 -6.36111e-015
rhumerus -37.8214 4.81878 -83.2257
rradius 31.2974
rwrist 0.0213707
rhand -5.36294 -34.9246
rfingers 7.12502
rthumb 20.4447 -63.8683
lclavicle 1.15295e-014 -6.36111e-015
lhumerus -23.7172 -7.84582 76.752
lradius 28.7936
lwrist 14.4457
lhand -14.7238 -13.4775
lfingers 7.12502
lthumb 11.4311 16.1908
rfemur -18.4435 1.9136 14.0929
rtibia 18.2624
rfoot -15.4223 -13.3987
rtoes 4.07106
lfemur -0.230582 -0.0921227 -16.6714
ltibia 7.36297
lfoot -9.28415 -7.62459
ltoes 36.0141
411
root 9.03866 18.3379 3.08557 5.11128 -6.34122 -0.563711
lowerback -2.15455 -1.57403 -5.39471
upperback 2.01816 -1.83492 -2.24892
thorax 3.39104 -1.01404 0.605105
lowerneck 5.73209 -9.45976 -7.2823
upperneck 2.33489 -13.1405 8.48436
head 0.902984 -6.68724 4.05792
rclavicle -3.83654e-014 -2.06736e-014
rhumerus -37.941 4.47181 -83.1146
rradius 30.9406
rwrist 0.131421
rhand -5.22151 -34.9502
rfingers 7.12502
rthumb 20.5806 -63.8792
lclavicle -3.83654e-014 -2.06736e-014
lhumerus -23.6958 -8.28313 76.9524
lradius 28.8512
lwrist 14.5102
lhand -14.7567 -13.5959
lfingers 7.12502
lthumb 11.3994 16.0743
rfemur -18.6701 2.11093 14.0576
rtibia 17.4331
rfoot -15.0257 -13.2112
rtoes 3.5715
lfemur 0.0170671 0.0594866 -16.7004
ltibia 6.87301
lfoot -8.92643 -7.93983
ltoes 36.6314
412
root 9.03017 18.3361 3.13794 5.24438 -6.19206 -0.515237
lowerback -2.17044 -1.56588 -5.38872
upperback 1.95799 -1.82528 -2.27202
thorax 3.33608 -1.00685 0.579442
lowerneck 5.24452 -9.03962 -6.93677
upperneck 2.716 -12.5533 8.41396
head 1.03034 -6.37854 3.94601
rclavicle 2.50469e-014 -1.11319e-014
rhumerus -38.068 4.12931 -82.9902
rradius 30.5937
rwrist 0.247189
rhand -5.07441 -35.0269
rfingers 7.12502
rthumb 20.7219 -63.9405
lclavicle 2.50469e-014 -1.11319e-014
lhumerus -23.7025 -8.68308 77.1639
lradius 28.905
lwrist 14.5174
lhand -14.7889 -13.7144
lfingers 7.12502
lthumb 11.3684 15.9575
rfemur -18.8674 2.3831 14.0499
rtibia 16.6684
rfoot -14.6834 -13.0672
rtoes 3.11455
lfemur 0.313783 0.232416 -16.6823
ltibia 6.35836
lfoot -8.59001 -8.22729
ltoes 36.9997
